<svg width="28" height="33" viewBox="0 0 28 33" fill="none" xmlns="http://www.w3.org/2000/svg">
<rect x="0.163574" y="0.0250244" width="27.6407" height="32.3192" rx="5" fill="#100DB1"/>
<path d="M18.4546 17.6841C18.1394 17.3558 17.7591 17.1803 17.356 17.1803C16.9563 17.1803 16.5727 17.3526 16.2444 17.6808L15.2173 18.7047C15.1328 18.6592 15.0483 18.6169 14.9671 18.5747C14.8501 18.5162 14.7396 18.4609 14.6453 18.4024C13.6832 17.7914 12.8089 16.995 11.9703 15.9647C11.564 15.4511 11.291 15.0189 11.0927 14.5801C11.3593 14.3363 11.6063 14.0828 11.8468 13.839C11.9378 13.748 12.0288 13.6537 12.1198 13.5627C12.8024 12.8802 12.8024 11.9961 12.1198 11.3135L11.2325 10.4262C11.1317 10.3254 11.0277 10.2214 10.9302 10.1174C10.7352 9.91589 10.5304 9.70788 10.3192 9.51286C10.0039 9.20083 9.62684 9.03506 9.23031 9.03506C8.83377 9.03506 8.45024 9.20083 8.12521 9.51286C8.12196 9.51611 8.12196 9.51611 8.11871 9.51936L7.01361 10.6342C6.59757 11.0502 6.3603 11.5573 6.3083 12.1456C6.23029 13.0947 6.50981 13.9788 6.72433 14.5573C7.25088 15.9777 8.03745 17.2941 9.21081 18.7047C10.6344 20.4046 12.3473 21.747 14.304 22.6928C15.0516 23.0471 16.0494 23.4664 17.1643 23.5379C17.2325 23.5411 17.304 23.5444 17.369 23.5444C18.1199 23.5444 18.7504 23.2746 19.2445 22.7383C19.2477 22.7318 19.2542 22.7285 19.2575 22.722C19.4265 22.5173 19.6215 22.332 19.8263 22.1337C19.966 22.0005 20.109 21.8607 20.2488 21.7145C20.5706 21.3797 20.7396 20.9896 20.7396 20.5899C20.7396 20.1868 20.5673 19.8 20.239 19.475L18.4546 17.6841ZM19.6182 21.1066C19.615 21.1066 19.615 21.1099 19.6182 21.1066C19.4915 21.2432 19.3615 21.3667 19.2217 21.5032C19.0104 21.7047 18.7959 21.916 18.5944 22.1532C18.2661 22.5043 17.8793 22.67 17.3723 22.67C17.3235 22.67 17.2715 22.67 17.2228 22.6668C16.2574 22.605 15.3604 22.228 14.6875 21.9062C12.8479 21.0156 11.2325 19.7513 9.89012 18.1489C8.78177 16.813 8.0407 15.5779 7.54991 14.2518C7.24763 13.4425 7.13712 12.8119 7.18588 12.2171C7.21838 11.8368 7.36464 11.5215 7.63442 11.2518L8.74276 10.1434C8.90203 9.9939 9.07104 9.91264 9.23681 9.91264C9.44158 9.91264 9.60734 10.0362 9.71135 10.1402C9.7146 10.1434 9.71785 10.1467 9.7211 10.1499C9.91937 10.3352 10.1079 10.5269 10.3062 10.7317C10.4069 10.8357 10.5109 10.9397 10.6149 11.047L11.5023 11.9343C11.8468 12.2789 11.8468 12.5974 11.5023 12.9419C11.408 13.0362 11.317 13.1304 11.2227 13.2214C10.9497 13.501 10.6897 13.761 10.4069 14.0145C10.4004 14.021 10.3939 14.0243 10.3907 14.0308C10.1111 14.3103 10.1631 14.5833 10.2216 14.7686C10.2249 14.7783 10.2281 14.7881 10.2314 14.7978C10.4622 15.3569 10.7872 15.8834 11.2812 16.5107L11.2845 16.514C12.1816 17.6191 13.1274 18.4804 14.1708 19.1402C14.304 19.2247 14.4405 19.293 14.5705 19.358C14.6875 19.4165 14.7981 19.4718 14.8923 19.5303C14.9053 19.5368 14.9183 19.5465 14.9313 19.553C15.0418 19.6083 15.1458 19.6343 15.2531 19.6343C15.5229 19.6343 15.6919 19.4653 15.7471 19.41L16.8587 18.2984C16.9693 18.1879 17.1448 18.0546 17.3495 18.0546C17.5511 18.0546 17.7168 18.1814 17.8176 18.2919C17.8208 18.2951 17.8208 18.2951 17.8241 18.2984L19.615 20.0893C19.9498 20.4208 19.9498 20.7621 19.6182 21.1066Z" fill="white"/>
<path d="M14.6063 11.8075C15.4579 11.9505 16.2314 12.3536 16.849 12.9711C17.4666 13.5887 17.8663 14.3623 18.0126 15.2138C18.0484 15.4283 18.2336 15.5779 18.4449 15.5779C18.4709 15.5779 18.4936 15.5746 18.5196 15.5714C18.7602 15.5324 18.9194 15.3048 18.8804 15.0643C18.7049 14.034 18.2174 13.0946 17.4731 12.3503C16.7287 11.606 15.7894 11.1185 14.7591 10.9429C14.5185 10.9039 14.2943 11.0632 14.252 11.3005C14.2098 11.5378 14.3658 11.7685 14.6063 11.8075Z" fill="white"/>
<path d="M21.6659 14.9376C21.3766 13.2409 20.5771 11.697 19.3484 10.4684C18.1198 9.23982 16.5759 8.44025 14.8793 8.15098C14.642 8.10872 14.4178 8.27124 14.3755 8.50851C14.3365 8.74903 14.4958 8.9733 14.7363 9.01555C16.2509 9.27233 17.6323 9.99064 18.7309 11.086C19.8295 12.1846 20.5446 13.566 20.8013 15.0806C20.8371 15.2951 21.0223 15.4446 21.2336 15.4446C21.2596 15.4446 21.2824 15.4414 21.3084 15.4381C21.5456 15.4024 21.7082 15.1749 21.6659 14.9376Z" fill="white"/>
</svg>
